<?xml version="1.0" encoding="utf-8"?>
<svg xmlns="http://www.w3.org/2000/svg" viewBox="84.2 31.7 600 1007.8">
  <path fill="green" d="M84.2 1027.3v12.1h600v-12.1h-600z"/>
  <path d="M473.785 898.064l-.11.273h.22l-.11-.273m0-.091l.329.547h-.11l-.11-.091h-.219l-.11.09h-.11l.33-.546"/>
  <path d="M474.662 897.973l.11.456v.09h-.11v-.09h.11v-.092l-.11-.364"/>
  <path d="M475.1 898.064l-.11.273h.22l-.11-.273m0-.091l.33.547h-.11l-.11-.091h-.22l-.109.09h-.11l.33-.546"/>
  <path d="M475.539 898.246v.183h.22v-.182h-.22m0-.183v.182h.22v-.182h-.22m-.11-.091h.33v.182h-.11.11v.091s0 .091-.11.091h-.33l.11-.364"/>
  <path d="M476.307 898.064c-.11 0-.11 0-.11.091v.365l.11.091c.11 0 .11 0 .11-.091v-.365c0-.091-.11-.091-.11-.091m0-.091c.11 0 .11 0 .219.09 0 .092.11.092.11.183s0 .183-.11.183c0 .09-.11.09-.22.09s-.11 0-.219-.09c0-.092-.11-.092-.11-.183s0-.182.11-.182c0-.091.11-.091.22-.091"/>
  <path d="M476.964 898.246l.11.091.11.183h-.11l-.11-.183v-.09h-.219v.182h-.11v-.548h.33v.092c.11.182.11.182 0 .273m-.22-.182v.182h.22v-.182h-.22"/>
  <path d="M477.622 897.973c0 .09-.11.09 0 0h-.329v.182h.11c.11 0 .11 0 .11.091v.091c0 .092 0 .092-.11.092h-.439v-.092h.33v-.182h-.11c-.11 0-.11 0-.11-.091v-.091s0-.092.11-.092h.11c.109.092.219.092.328.092-.11 0 0 0 0 0"/>
  <path d="M477.732 897.973l.11.182.219-.182h.11l-.33.273.33.274h-.11l-.33-.274v.274h-.109v-.547"/>
  <path d="M478.5 898.064l-.11.273h.22l-.11-.273m0-.091l.328.547h-.11l-.109-.091h-.22l-.109.09h-.11l.33-.546"/>
  <path fill="#A05A2C" fill-opacity=".5" stroke="#000" stroke-width=".3" d="M385.1 898.5l-10.8.1-9.3 1.3-10.2 2.3-10 2.5-11.6 4.1-12.9 6.8-10.7 7-14.3 11.1-5.7 11.8 4.1 4.5 4.8-5.7 9.5-8.2 7.2-5.9 9.5-5.7 8.8-4.8 19-7.7 18.8-2.9 12.7-.8v.3l12.6.5 18.8 2.9 19.1 7.7 8.8 4.8 9.5 5.7 7.2 5.9 9.5 8.2 4.8 5.7 4.1-4.5-5.7-11.8-14.3-11.1-10.7-7-12.9-6.8-11.6-4.1-10-2.5-10.2-2.3-9.3-1.3h-9.1v-.1z"/>
  <path fill="#A05A2C" fill-opacity=".5" stroke="#000" stroke-width=".3" d="M533.3 1012.4L464 874.9l3.2.2 69.1 137.5-3-.2z"/>
  <path fill="#A05A2C" fill-opacity=".5" stroke="#000" stroke-width=".3" d="M478 941.9v5h46.4v-5H478z"/>
  <path fill="#A05A2C" fill-opacity=".5" stroke="#000" stroke-width=".3" d="M451.6 889.4v5H498v-5h-46.4z"/>
  <path fill="#A05A2C" fill-opacity=".5" stroke="#000" stroke-width=".3" d="M460.4 906.9v5h46.4v-5h-46.4z"/>
  <path fill="#A05A2C" fill-opacity=".5" stroke="#000" stroke-width=".3" d="M469.2 924.4v5h46.4v-5h-46.4z"/>
  <path fill="#A05A2C" fill-opacity=".5" stroke="#000" stroke-width=".3" d="M486.8 959.4v5h46.4v-5h-46.4z"/>
  <path fill="#A05A2C" fill-opacity=".5" stroke="#000" stroke-width=".3" d="M495 976.9v5h46.4v-5H495z"/>
  <path fill="#A05A2C" fill-opacity=".5" stroke="#000" stroke-width=".3" d="M503.1 994.4v5h46.4v-5h-46.4z"/>
  <path fill="#A05A2C" fill-opacity=".502" stroke="#000" stroke-width=".3" d="M522.2 943.6l-28.5 34.3 3.8 3.2 28.5-34.3-3.8-3.2z"/>
  <path fill="#A05A2C" fill-opacity=".502" stroke="#000" stroke-width=".3" d="M539.8 978.6l-28.5 34.3 3.8 3.2 28.5-34.3-3.8-3.2z"/>
  <path fill="#A05A2C" fill-opacity=".502" stroke="#000" stroke-width=".3" d="M504.6 908.6l-28.5 34.3 3.8 3.2 28.5-34.3-3.8-3.2z"/>
  <path fill="#A05A2C" fill-opacity=".502" stroke="#000" stroke-width=".3" d="M487 873.6l-28.5 34.3 3.8 3.2 28.5-34.3-3.8-3.2z"/>
  <path fill="#A05A2C" fill-opacity=".502" stroke="#000" stroke-width=".3" d="M495.7 978.1l-1 5.1 64.1 34.4-2.6-6.8-60.5-32.7z"/>
  <path fill="#A05A2C" fill-opacity=".502" stroke="#000" stroke-width=".3" d="M478.1 943.1l-1 5.1 64.1 34.4-2.6-6.8-60.5-32.7z"/>
  <path fill="#A05A2C" fill-opacity=".502" stroke="#000" stroke-width=".3" d="M460.5 908.1l-1 5.1 64.1 34.4-2.6-6.8-60.5-32.7z"/>
  <path fill="#A05A2C" fill-opacity=".502" stroke="#000" stroke-width=".3" d="M442.9 873.1l-1 5.1 64.1 34.4-2.6-6.8-60.5-32.7z"/>
  <path fill="#A05A2C" fill-opacity=".502" stroke="#000" stroke-width=".3" d="M419.6 785.1l40.5.2 1.2 4.7h-41.2l-.5-4.9z"/>
  <path fill="#A05A2C" fill-opacity=".502" stroke="#000" stroke-width=".3" d="M425.9 820.2l45.4.2 1.2 4.7h-46.1l-.5-4.9z"/>
  <path fill="#A05A2C" fill-opacity=".502" stroke="#000" stroke-width=".3" d="M411 719.3l40 30.5 1.1 4h-2.6l-39.6-29.7-1.1-4.9 2.2.1z"/>
  <path fill="#A05A2C" fill-opacity=".502" stroke="#000" stroke-width=".3" d="M413.1 749.2H451l1.2 4.7-38.6.2-.5-4.9z"/>
  <path fill="#A05A2C" fill-opacity=".502" stroke="#000" stroke-width=".3" d="M425.9 718.3l-2.4.5 7 33.2 8.2 35.9 9.1 35.2 10.3 34.1 2.4-.7-10.3-34v-.1l-9.1-35.1-8.2-35.9-7-33.1z"/>
  <path fill="#A05A2C" fill-opacity=".502" stroke="#000" stroke-width=".3" d="M440.9 719.1l-27.7 29.8 1 5.1 29.9-32.2-.8-2.5-2.4-.2z"/>
  <path fill="#A05A2C" fill-opacity=".502" stroke="#000" stroke-width=".3" d="M451.3 749.7l-32.1 35 1 5.5 32.5-35.3-.8-2.5-.6-2.7z"/>
  <path fill="#A05A2C" fill-opacity=".502" stroke="#000" stroke-width=".3" d="M413.4 749.4l46.5 36 1.3 4.5-1.3.1-44.6-33.4-1.1-4.9 2.3.1-3.1-2.4z"/>
  <path fill="#A05A2C" fill-opacity=".502" stroke="#000" stroke-width=".3" d="M419.5 785.5l52 36 1.5 3.3-3.8.1-48.9-33.2-.7-4.9-.1-1.3z"/>
  <path fill="#A05A2C" fill-opacity=".502" stroke="#000" stroke-width=".3" d="M459.4 785.4l-33.5 35.9 1.2 4.9 33.7-35.7-.8-2.5-.6-2.6z"/>
  <path fill="#A05A2C" fill-opacity=".502" stroke="#000" stroke-width=".3" d="M471.2 819.5l-36.5 33.4 2.3 4.3 35.5-32.6-.8-2.5-.5-2.6z"/>
  <path fill="#A05A2C" fill-opacity=".502" stroke="#000" stroke-width=".3" d="M426 819.4l56.9 33.8.9 3.7-4.4-.1-52.7-31.2-.7-4.9v-1.3z"/>
  <path fill="#A05A2C" fill-opacity=".502" stroke="#000" stroke-width=".3" d="M423.3 709.1l2.6-.1-3.7-19.7-2.4-.1 3.5 19.9z"/>
  <path fill="#A05A2C" fill-opacity=".502" stroke="#000" stroke-width=".3" d="M383 709.4l2.6-.1v-20.9l-2.6-.1v21.1z"/>
  <path fill="#A05A2C" fill-opacity=".502" stroke="#000" stroke-width=".3" d="M402.5 687.6L383 709.2l2.9.7 18.5-20.7-1.9-1.6zm16.9.6l-13.2 20.6 2.1 1.3 13.2-20.6-2.1-1.3zm15.2.4l-10.8 20.9 2.9-.1 10.2-19.7-2.3-1.1z"/>
  <path fill="#A05A2C" fill-opacity=".502" stroke="#000" stroke-width=".3" d="M386.2 687.7l-2.8.6 21.6 21.3 1.8-1.8-20.6-20.1zm36.5.4l-1.8 1.7 18.8 20.1 1.8-1.7-18.8-20.1zm-17.1.1l-1.8 1.7 19.6 20.4 1.8-1.7-19.6-20.4z"/>
  <path fill="#A05A2C" fill-opacity=".502" stroke="#000" stroke-width=".3" d="M384.2 441.8h-25.7v2.5h25.7v-2.5zm.1 0v2.5H410v-2.5h-25.7zm-1.4 31.5l-26.6.1v2.5l26.6-.1v-2.5zm2.7 0v2.5l26.6.1v-2.5l-26.6-.1zm-31.2 30.9v2.5h27.2v-2.5h-27.2zm32.6 0v2.5h27.2v-2.5H387zm-34.8 32.9v2.5l21.1.1v.1h22v-.1l21.1-.1v-2.5l-32.1.1-32.1-.1zm-2.8 33.1v2.5h69.7v-2.5h-69.7zm-3.7 33.7v2.5h77v-2.5h-77zm-4.6 33.6v2.5h86.2v-2.5h-86.2z"/>
  <path fill="#A05A2C" fill-opacity=".502" stroke="#000" stroke-width=".3" d="M384.3 219.6v2l15.5.1v-2l-15.5-.1zm15.9 20.3h-15.9v2h15.9v-2zm-15.9 20.7v2h16.8v-2h-16.8zm0 22.5v2h17.6v-2h-17.6zm0 23.1v2h19.1v-2h-19.1zm0 23.3v2l19.9.1v-2l-19.9-.1zm0 25.2v2l21.3.2v-2l-21.3-.2zm22.9 27.9h-22.9v2h22.9v-2zm-22.9 29.1v2l24.2.1v-2l-24.2-.1z"/>
  <path fill="#A05A2C" fill-opacity=".502" stroke="#000" stroke-width=".3" d="M427.1 637.4l-27.3 33.1 1.5 1.3 26.8-32.4-1-2z"/>
  <path fill="#A05A2C" fill-opacity=".502" stroke="#000" stroke-width=".3" d="M422 604.5l-25.8 33.1-.1.1-29.4 33 1.5 1.3 29.5-33.1 25.8-33.1-1.5-1.3z"/>
  <path fill="#A05A2C" fill-opacity=".502" stroke="#000" stroke-width=".3" d="M418.8 568.4l-26.3 36.3.2 3.1 26.1-36.1v-3.3z"/>
  <path fill="#A05A2C" fill-opacity=".502" stroke="#000" stroke-width=".3" d="M416.5 536.1l-26.9 34.7.7 2.3 26.3-34.1-.1-2.9z"/>
  <path fill="#A05A2C" fill-opacity=".502" stroke="#000" stroke-width=".3" d="M414.2 503.2l-26.1 34.4.2 3.1 26.1-34.4-.2-3.1z"/>
  <path fill="#A05A2C" fill-opacity=".502" stroke="#000" stroke-width=".3" d="M411.8 472.6l-24.9 32.3.2 3.2 25-32.7-.3-2.8z"/>
  <path fill="#A05A2C" fill-opacity=".502" stroke="#000" stroke-width=".3" d="M409.6 440.8l-24.3 32.9 1.6 1.2 23.1-31.3-.4-2.8z"/>
  <path fill="#A05A2C" fill-opacity=".502" stroke="#000" stroke-width=".3" d="M407.9 410.6l-23.5 31.5 1.6 1.2 22.2-29.8-.3-2.9z"/>
  <path fill="#A05A2C" fill-opacity=".502" stroke="#000" stroke-width=".3" d="M389 570.9l-14 33.4 2.2.4 13.4-32.8-1.6-1z"/>
  <path fill="#A05A2C" fill-opacity=".502" stroke="#000" stroke-width=".3" d="M385.4 412l-1.6 1.2 26 32.2-.2-3.1-24.2-30.3zm.2 30.8l-1.5 1.3 28.1 33.1-.6-3.6-26-30.8zm.9 31.4l-.8 1.9 28.8 32.4-.3-3.6-27.7-30.7zm1.1 30.1l-.9 2.1 29.9 35.1-.7-3.6-28.3-33.6zm-5.8-1.3l-1 5.4 6.1 29.9 1.7-.8-6.8-34.5zm-1 34.5l-1.1 3.5 10.8 35.5-.2-6.3-9.5-32.7zm8.2.3l-1.5 1.3 31.7 34.9-.8-3.8-29.4-32.4zm-9.8 32.9l-1.8.8 13.6 34 1.8-.8-13.6-34zm11.1-.5l-.5 2.4 33.4 35.3-.1-3.2-32.8-34.5zm2.3 32.6l-.2 2.8 35.7 36.2-.5-3.5-35-35.5zm3.3 33.8l-.1 2.7 35.5 32.3 1.3-1.5-36.7-33.5z"/>
  <path fill="#A05A2C" fill-opacity=".502" stroke="#000" stroke-width=".3" d="M398.6 201.4l-14.9 19 1.3 1.1 14.9-19-1.3-1.1zm.2 18.8l-15.2 20.2 1.4 1 15.2-20.2-1.4-1zm.9 20.1l-16 20.9 1.3 1 16-20.9-1.3-1zm.6 21l-16.4 22.2 1.4 1 16.4-22.2-1.4-1zm1.2 22.2l-17.8 23.3 1.3 1 17.8-23.3-1.3-1zm1 23l-19 23.5 1.3 1.1 19-23.5-1.3-1.1zm.9 23.6l-19.8 25.3 1.3 1.1 19.8-25.3-1.3-1.1zm1.4 24.9l-21.2 28.2 1.4 1 21.2-28.2-1.4-1zm1.7 27.3l-23.3 30.1 1.3 1 23.3-30.1-1.3-1z"/>
  <path fill="#A05A2C" fill-opacity=".502" stroke="#000" stroke-width=".3" d="M384.6 201.2l-1.3 1.1 15.7 19.5 1.3-1.1-15.7-19.5zm0 18.7l-1.3 1.1 16.3 20.3 1.3-1.1-16.3-20.3zm-.1 20.6l-1.3 1.1 17.7 21.1.4-2.2-16.8-20zm.4 20.7l-1.3 1.1 17.9 22.2 1.3-1.1-17.9-22.2zm-.2 22.4l-1.3 1.1 19.2 23.2 1.3-1.1-19.2-23.2zm0 22.9l-1.3 1.1 20.4 23.9 1.3-1.1-20.4-23.9zm.1 23.3l-1.3 1.1 21.4 25.7 1.3-1.1-21.4-25.7zm.1 25.4l-1.3 1.1 22.9 28.3 1.3-1.1-22.9-28.3zm-.1 27.7l-1.3 1.1 24.2 29.4 1.3-1.1-24.2-29.4z"/>
  <path fill="#A05A2C" fill-opacity=".502" stroke="#000" stroke-width=".3" d="M384.1 195.3h15.1v6.6h-15.1z"/>
  <path fill="#A05A2C" fill-opacity=".502" stroke="#000" stroke-width=".3" d="M384.2 170h14.5v24.8h-14.5z"/>
  <path d="M294.74 898.064l.11.273h-.22l.11-.273m0-.091l-.329.547h.11l.11-.091h.219l.11.09h.11l-.33-.546"/>
  <path d="M293.863 897.973l-.11.456v.09h.11v-.09h-.11v-.092l.11-.364"/>
  <path d="M293.424 898.064l.11.273h-.22l.11-.273m0-.091l-.329.547h.11l.11-.091h.219l.11.09h.11l-.33-.546"/>
  <path d="M292.986 898.246v.183h-.22v-.182h.22m0-.183v.182h-.22v-.182h.22m.11-.091h-.33v.273s0 .091.11.091h.33l-.11-.364"/>
  <path d="M292.218 898.064c.11 0 .11 0 .11.091v.365l-.11.091c-.11 0-.11 0-.11-.091v-.365c0-.091.11-.091.11-.091m0-.091c-.11 0-.11 0-.219.09 0 .092-.11.092-.11.183s0 .183.11.183c0 .09.11.09.22.09.109 0 .109 0 .219-.09 0-.092.11-.092.11-.183s0-.182-.11-.182c0-.091-.11-.091-.22-.091"/>
  <path d="M291.56 898.246l-.11.091-.109.183h.11l.11-.183v-.09h.219v.182h.11v-.548h-.33v.092c-.11.182-.11.182 0 .273m.22-.182v.182h-.22v-.182h.22"/>
  <path d="M290.903 897.973c0 .09.11.09 0 0h.329v.182h-.11c-.11 0-.11 0-.11.091v.091c0 .092 0 .092.11.092h.439v-.092h-.33v-.182h.11c.11 0 .11 0 .11-.091v-.091s0-.092-.11-.092h-.11c-.11.092-.219.092-.328.092.11 0 0 0 0 0"/>
  <path d="M290.793 897.973l-.11.182-.22-.182h-.109l.33.273-.33.274h.11l.329-.274v.274h.11v-.547"/>
  <path d="M290.025 898.064l.11.273h-.22l.11-.273m0-.091l-.329.547h.11l.11-.091h.219l.11.09h.11l-.33-.546"/>
  <path fill="#A05A2C" fill-opacity=".5" stroke="#000" stroke-width=".3" d="M235.2 1012.4l69.4-137.6-3.2.2-69.1 137.5 2.9-.1z"/>
  <path fill="#A05A2C" fill-opacity=".5" stroke="#000" stroke-width=".3" d="M290.6 941.9v5h-46.4v-5h46.4z"/>
  <path fill="#A05A2C" fill-opacity=".5" stroke="#000" stroke-width=".3" d="M317 889.4v5h-46.4v-5H317z"/>
  <path fill="#A05A2C" fill-opacity=".5" stroke="#000" stroke-width=".3" d="M308.2 906.9v5h-46.4v-5h46.4z"/>
  <path fill="#A05A2C" fill-opacity=".5" stroke="#000" stroke-width=".3" d="M299.4 924.4v5H253v-5h46.4z"/>
  <path fill="#A05A2C" fill-opacity=".5" stroke="#000" stroke-width=".3" d="M281.8 959.4v5h-46.4v-5h46.4z"/>
  <path fill="#A05A2C" fill-opacity=".5" stroke="#000" stroke-width=".3" d="M273.5 976.9v5H227v-5h46.5z"/>
  <path fill="#A05A2C" fill-opacity=".5" stroke="#000" stroke-width=".3" d="M265.4 994.4v5H219v-5h46.4z"/>
  <path fill="#A05A2C" fill-opacity=".502" stroke="#000" stroke-width=".3" d="M246.3 943.6l28.5 34.3-3.8 3.2-28.5-34.3 3.8-3.2z"/>
  <path fill="#A05A2C" fill-opacity=".502" stroke="#000" stroke-width=".3" d="M228.7 978.6l28.5 34.3-3.8 3.2-28.5-34.3 3.8-3.2z"/>
  <path fill="#A05A2C" fill-opacity=".502" stroke="#000" stroke-width=".3" d="M263.9 908.6l28.5 34.3-3.8 3.2-28.5-34.3 3.8-3.2z"/>
  <path fill="#A05A2C" fill-opacity=".502" stroke="#000" stroke-width=".3" d="M281.5 873.6l28.5 34.3-3.8 3.2-28.5-34.3 3.8-3.2z"/>
  <path fill="#A05A2C" fill-opacity=".502" stroke="#000" stroke-width=".3" d="M272.9 978.1l1 5.1-64.1 34.4 2.6-6.8 60.5-32.7z"/>
  <path fill="#A05A2C" fill-opacity=".502" stroke="#000" stroke-width=".3" d="M290.5 943.1l1 5.1-64.1 34.4 2.6-6.8 60.5-32.7z"/>
  <path fill="#A05A2C" fill-opacity=".502" stroke="#000" stroke-width=".3" d="M308.1 908.1l1 5.1-64.1 34.3 2.6-6.8 60.5-32.6z"/>
  <path fill="#A05A2C" fill-opacity=".502" stroke="#000" stroke-width=".3" d="M325.7 873.1l1 5.1-64.1 34.4 2.6-6.8 60.5-32.7z"/>
  <path fill="#A05A2C" fill-opacity=".502" stroke="#000" stroke-width=".3" d="M349 785.1l-40.5.2-1.2 4.7h41.2l.5-4.9z"/>
  <path fill="#A05A2C" fill-opacity=".502" stroke="#000" stroke-width=".3" d="M342.6 820.2l-45.4.2-1.2 4.6h46.1l.5-4.8z"/>
  <path fill="#A05A2C" fill-opacity=".502" stroke="#000" stroke-width=".3" d="M357.5 719.3l-40 30.5-1.1 4h2.6l39.6-29.7 1.1-4.9-2.2.1z"/>
  <path fill="#A05A2C" fill-opacity=".502" stroke="#000" stroke-width=".3" d="M355.5 749.2h-37.9l-1.2 4.7 38.6.2.5-4.9z"/>
  <path fill="#A05A2C" fill-opacity=".502" stroke="#000" stroke-width=".3" d="M342.6 718.3l2.4.5-7 33.2-8.2 35.9-9.1 35.2-10.3 34.1-2.4-.7 10.3-34v-.1l9.1-35.1 8.2-35.9 7-33.1z"/>
  <path fill="#A05A2C" fill-opacity=".502" stroke="#000" stroke-width=".3" d="M327.7 719.1l27.7 29.8-1 5.1-29.9-32.2.8-2.5 2.4-.2z"/>
  <path fill="#A05A2C" fill-opacity=".502" stroke="#000" stroke-width=".3" d="M317.2 749.7l32.1 35-1 5.5-32.5-35.3.8-2.5.6-2.7z"/>
  <path fill="#A05A2C" fill-opacity=".502" stroke="#000" stroke-width=".3" d="M355.1 749.4l-46.5 36-1.3 4.5 1.3.1 44.6-33.4 1.1-4.9-2.3.1 3.1-2.4z"/>
  <path fill="#A05A2C" fill-opacity=".502" stroke="#000" stroke-width=".3" d="M349 785.5l-52 36-1.5 3.3 3.8.1 48.9-33.2.7-4.9.1-1.3z"/>
  <path fill="#A05A2C" fill-opacity=".502" stroke="#000" stroke-width=".3" d="M309.1 785.4l33.5 35.9-1.2 4.9-33.7-35.7.8-2.5.6-2.6z"/>
  <path fill="#A05A2C" fill-opacity=".502" stroke="#000" stroke-width=".3" d="M297.3 819.5l36.5 33.4-2.3 4.3-35.5-32.6.8-2.5.5-2.6z"/>
  <path fill="#A05A2C" fill-opacity=".502" stroke="#000" stroke-width=".3" d="M342.5 819.4l-56.9 33.8-.9 3.7 4.4-.1 52.7-31.2.7-4.9v-1.3z"/>
  <path fill="#A05A2C" fill-opacity=".502" stroke="#000" stroke-width=".3" d="M345.2 709.1l-2.6-.1 3.7-19.7 2.4-.1-3.5 19.9z"/>
  <path fill="#A05A2C" fill-opacity=".502" stroke="#000" stroke-width=".3" d="M366 687.6l19.5 21.8-2.9.6-18.5-20.7 1.9-1.7zm-16.9.6l13.2 20.6-2.1 1.3-13.2-20.6 2.1-1.3zm-15.1.4l10.7 20.8-2.7.1-10.2-19.7 2.2-1.2z"/>
  <path fill="#A05A2C" fill-opacity=".502" stroke="#000" stroke-width=".3" d="M382.3 687.7l3 .4-21.8 21.5-1.8-1.8 20.6-20.1zm-36.5.4l1.8 1.7-18.8 20.1-1.8-1.7 18.8-20.1zm17.1.1l1.8 1.7-19.6 20.4-1.8-1.7 19.6-20.4z"/>
  <path fill="#A05A2C" fill-opacity=".502" stroke="#000" stroke-width=".3" d="M384.2 219.6v2l-15.5.1v-2l15.5-.1zm-15.8 20.3h15.9v2h-15.9v-2zm15.8 20.7v2h-16.8v-2h16.8zm0 22.5v2h-17.6v-2h17.6zm0 23.1v2h-19.1v-2h19.1zm0 23.3v2l-19.9.1v-2l19.9-.1zm0 25.2v2l-21.3.2v-2l21.3-.2zm-22.9 27.9h22.9v2h-22.9v-2zm22.9 29.1v2l-24.2.1v-2l24.2-.1z"/>
  <path fill="#A05A2C" fill-opacity=".502" stroke="#000" stroke-width=".3" d="M341.4 637.4l27.3 33.1-1.5 1.3-26.8-32.4 1-2z"/>
  <path fill="#A05A2C" fill-opacity=".502" stroke="#000" stroke-width=".3" d="M346.5 604.5l25.8 33.1.1.1 29.4 33-1.5 1.3-29.5-33.1-25.8-33.1 1.5-1.3z"/>
  <path fill="#A05A2C" fill-opacity=".502" stroke="#000" stroke-width=".3" d="M349.7 568.4l26.3 36.3-.2 3.1-26.1-36.1v-3.3z"/>
  <path fill="#A05A2C" fill-opacity=".502" stroke="#000" stroke-width=".3" d="M352 536.1l26.9 34.7-.7 2.3-26.3-34.1.1-2.9z"/>
  <path fill="#A05A2C" fill-opacity=".502" stroke="#000" stroke-width=".3" d="M354.4 503.2l26.1 34.4-.2 3.1-26.1-34.4.2-3.1z"/>
  <path fill="#A05A2C" fill-opacity=".502" stroke="#000" stroke-width=".3" d="M356.7 472.6l24.9 32.3-.2 3.2-25-32.7.3-2.8z"/>
  <path fill="#A05A2C" fill-opacity=".502" stroke="#000" stroke-width=".3" d="M358.9 440.8l24.3 32.9-1.6 1.2-23.1-31.3.4-2.8z"/>
  <path fill="#A05A2C" fill-opacity=".502" stroke="#000" stroke-width=".3" d="M360.6 410.6l23.5 31.5-1.6 1.2-22.2-29.8.3-2.9z"/>
  <path fill="#A05A2C" fill-opacity=".502" stroke="#000" stroke-width=".3" d="M376.3 604.7l20.9 33.7-1.7 1.1-20.8-33.7 1.6-1.1z"/>
  <path fill="#A05A2C" fill-opacity=".502" stroke="#000" stroke-width=".3" d="M383.1 412l1.6 1.2-26 32.2.2-3.1 24.2-30.3zm-.2 30.8l1.5 1.3-28.1 33.1.6-3.6 26-30.8zm-.9 31.4l.8 1.9-28.8 32.4.3-3.6 27.7-30.7zm-1.1 30.1l.9 2.1-29.8 35 .7-3.6 28.2-33.5zm6.1-1.7l.9 5.2-6.9 30.8-1.9-.5 7.9-35.5zm.4 35.3l1.9.7-10.2 33.9-1.2-2.1 9.5-32.5zm-7.9-.1l1.5 1.3-31.7 34.9.8-3.8 29.4-32.4zm-1.3 32.4l.5 2.4-33.4 35.3.1-3.2 32.8-34.5zm-2.2 32.6l.2 2.8-35.7 36.2.5-3.5 35-35.5zm16.1 1.7l1.4 1.2-19.6 33.4-1.7-1.1 19.9-33.5zm-19.5 32.1l.1 2.7-35.5 32.3-1.3-1.5 36.7-33.5z"/>
  <path fill="#A05A2C" fill-opacity=".502" stroke="#000" stroke-width=".3" d="M370 201.4l14.9 19-1.3 1.1-14.9-19 1.3-1.1zm-.3 18.8l15.2 20.2-1.4 1-15.2-20.2 1.4-1zm-.8 20.1l16 20.9-1.3 1-16-20.9 1.3-1zm-.7 21l16.4 22.2-1.4 1-16.4-22.2 1.4-1zm-1.1 22.2l17.8 23.3-1.3 1-17.8-23.3 1.3-1zm-1.1 23l19 23.5-1.3 1.1-19-23.5 1.3-1.1zm-.9 23.6l19.8 25.3-1.3 1.1-19.8-25.3 1.3-1.1zm-1.4 24.9l21.2 28.2-1.4 1-21.1-28.2 1.3-1zm-1.7 27.3l23.3 30.1-1.3 1-23.3-30.1 1.3-1z"/>
  <path fill="#A05A2C" fill-opacity=".502" stroke="#000" stroke-width=".3" d="M383.9 201.2l1.3 1.1-15.7 19.5-1.3-1.1 15.7-19.5zm.1 18.7l1.3 1.1-16.3 20.3-1.3-1.1 16.3-20.3zm.1 20.6l1.3 1.1-17.7 21.1-.6-1.9 17-20.3zm-.5 20.7l1.3 1.1-17.9 22.1-1.3-1.1 17.9-22.1zm.2 22.4l1.3 1.1-19.1 23.1-1.3-1.1 19.1-23.1zm0 22.9l1.3 1.1-20.4 23.9-1.3-1.1 20.4-23.9zm-.1 23.3l1.3 1.1-21.4 25.7-1.3-1.1 21.4-25.7zm-.1 25.4l1.3 1.1-22.9 28.2-1.3-1.1 22.9-28.2zm.1 27.7l1.3 1.1-24.2 29.4-1.3-1.1 24.2-29.4z"/>
  <path fill="#A05A2C" fill-opacity=".502" stroke="#000" stroke-width=".3" d="M369.3 195.3h15.1v6.6h-15.1z"/>
  <path fill="#A05A2C" fill-opacity=".502" stroke="#000" stroke-width=".3" d="M369.8 170h14.5v24.8h-14.5z"/>
  <g stroke="#000">
    <path fill="#A05A2C" stroke-width=".3" d="M330.2 709.4l9.2 9.2h1.2l-9.2-9.2h-1.2zm4.7 0l9.2 9.2h1.2l-9.2-9.2h-1.2zm4.9 0l9.2 9.2h1.2l-9.2-9.2h-1.2zm4.7 0l9.2 9.2h1.2l-9.2-9.2h-1.2zm4.8 0l9.2 9.2h1.2l-9.2-9.2h-1.2zm4.9 0l9.2 9.2h1.2l-9.2-9.2h-1.2zm4.8.1l9.2 9.2h1.2l-9.2-9.2H359zm4.8 0l9.2 9.2h1.2l-9.2-9.2h-1.2zm4.8 0l9.2 9.2h1.2l-9.2-9.2h-1.2zm4.8 0l9.2 9.2h1.2l-9.2-9.2h-1.2zm4.8 0l9.2 9.2h1.2l-9.1-9.2h-1.3zm4.8 0l9.2 9.2h1.2l-9.2-9.2H383zm4.8 0l9.1 9.2h1.2l-9.1-9.2h-1.2zm4.8 0l9.2 9.2h1.2l-9.1-9.2h-1.3zm4.8 0l9.1 9.2h1.2l-9.2-9.2h-1.1zm4.8 0l9.1 9.2h1.2l-9.1-9.2h-1.2zm4.8 0l9.2 9.2h1.2l-9.2-9.2H407zm4.8 0l9.1 9.2h1.2l-9.1-9.1-1.2-.1zm4.8 0l9.1 9.1h1.2l-9.1-9.1h-1.2zm4.8 0l9.1 9.1h1.2l-9.1-9.1h-1.2zm4.8 0l9.1 9.1h1.2l-9.1-9.1h-1.2zm4.8 0l9.1 9.1h1.2l-9.1-9.1H431zm4.8 0l7.2 7.2-.4-1.6-5.6-5.6h-1.2zm4.8 0l.8.8-.2-.8h-.6zm-113.4.6l-.2.9 7.7 7.7h1.2l-8.7-8.6zm-1.1 3.7l-.2.9 3.9 3.9h1.2l-4.9-4.8zm-1 3.9l-.2.9.1.1h1.2l-1.1-1z"/>
    <path fill="#A05A2C" stroke-width=".3" d="M327.3 709.4l-.2.6.6-.6h-.4zm4 0l-5.5 5.5-.4 1.7 7.2-7.2h-1.3zm4.9 0l-9.2 9.2h1.2l9.2-9.2h-1.2zm4.8 0l-9.3 9.2h1.2l9.2-9.2H341zm4.8 0l-9.2 9.2h1.2l9.2-9.2h-1.2zm4.8 0l-9.3 9.2h1.2l9.2-9.2h-1.1zm4.7 0l-9.2 9.2h1.2l9.2-9.2h-1.2zm4.8.1l-9.2 9.2h1.2l9.2-9.2h-1.2zm4.8 0l-9.2 9.2h1.2l9.2-9.2h-1.2zm4.8 0l-9.2 9.2h1.2l9.2-9.2h-1.2zm4.8 0l-9.2 9.2h1.2l9.2-9.2h-1.2zm4.8 0l-9.2 9.2h1.2l9.2-9.2h-1.2zm4.8 0l-9.2 9.2h1.2l9.2-9.2h-1.2zm4.8 0l-9.2 9.2h1.2l9.2-9.2h-1.2zm4.8 0l-9.2 9.2h1.2l9.2-9.2h-1.2zm4.8 0l-9.2 9.2h1.2l9.1-9.2h-1.1zm4.8 0l-9.2 9.2h1.2l9.2-9.2h-1.2zm4.8 0l-9.2 9.2h1.2l9.1-9.2h-1.1zm4.8 0l-9.2 9.1h1.2l9.1-9.1h-1.1zm4.8 0l-9.1 9.1h1.2l9.1-9.1h-1.2zm4.8 0l-9.2 9.1h1.2l9.1-9.1h-1.1zm4.8 0l-9.1 9.1h1.2l9.1-9.1h-1.2zm4.8 0l-9.1 9.1h1.2l9.1-9.1h-1.2zm4.8 0l-9.1 9.1h1.2l9.1-9.1h-1.2zm4.4.4l-8.7 8.7h1.2l7.7-7.8-.2-.9zm.9 3.8l-4.9 4.8h1.2l3.8-3.9-.1-.9zm1 3.9l-1 1h1.2l-.2-1z"/>
    <path fill="#A05A2C" stroke-width=".3" d="M364.4 687.6l-32.1.3h-.8l-.2.8-7.4 29.8-8.3 32.7-8.7 34.9-5.1 17.9v.1l-18.6 52.5-.5 1.3h1.4l48.4.3h.8l.2-.7 9.9-34.7v-.1l6.4-35.3 6.1-35.9 5-31.9h46.4l5 31.9 6.1 35.9 6.4 35.3v.1l9.9 34.7.2.7h.8l48.4-.3h1.4l-.5-1.3-18.6-52.5v-.1l-5.1-17.9-8.7-34.9-8.3-32.7-7.4-29.8.1-.7h-.8l-32.1-.3H403l.2 1.2 2.8 19.9h-43.3l2.8-19.9.2-1.2h-1.3zm-31.3 2h30.2l-2.7 19h-32.1l4.6-19zm102.3 0l4.6 19.1h-32.1l-2.7-19 30.2-.1zM328 710.7h32.4l-1 7.1h-33.1l1.7-7.1zm34.3 0h43.8l1 7.1h-45.8l1-7.1zm45.9 0h32.4l1.8 7.1h-33.1l-1.1-7.1zm-82.5 9.1H359l-5 31.6-6.1 35.9-6.4 35.2v.1l-9.7 33.8-46.3-.3 18.1-51.3 5.1-17.9 8.7-35 8.3-32.1zm83.8 0h33.3l8.2 32 8.7 35 5.1 17.9 18.1 51.3-46.3.3-9.7-33.8v-.1l-6.4-35.2-6.1-35.9-4.9-31.5z"/>
    <path stroke-width=".3" d="M383.3 31.8h1.8v45.6h-1.8z"/>
    <g fill="#A05A2C" stroke-width=".3">
      <path d="M467.3 834.2h.7v23.3h-.7z"/>
      <path d="M470 834.1h.7v23.3h-.7z"/>
    </g>
    <path fill="#A05A2C" stroke-width=".3" d="M491.5 834.2h.7v23.3h-.7z"/>
    <path fill="#A05A2C" stroke-width=".3" stroke-linejoin="bevel" d="M378 907.8c-2.6.2-7.9.5-11.8 1.1-5.5.8-11 1.7-16.4 3.4-5.5 1.7-10.8 3.9-15.9 6.4-5.3 2.6-10.5 5.5-15.5 8.8-3.9 2.6-7.6 5.4-11.2 8.4-3.8 3.2-7.5 6.5-10.9 10.2-4 4.3-7.8 9-11.1 13.9-3.6 5.4-6.8 11.2-9.5 17.1-2.2 4.8-3.9 9.9-5.3 15-1.2 4.5-2.2 9.1-2.7 13.8-.4 3.5-.2 10.2-.2 10.2 0 .5.5 1 1 1s1-.5 1-1c0 0-.1-6.8.2-9.9.5-4.5 1.4-9 2.6-13.4 1.4-5 3.1-10 5.2-14.7 2.6-5.8 5.7-11.5 9.3-16.8 3.2-4.8 6.9-9.4 10.9-13.7 3.3-3.6 6.9-6.8 10.7-10 3.5-3 7.2-5.8 11-8.2 4.9-3.2 10-6.1 15.3-8.6 5.1-2.4 10.2-4.7 15.6-6.3 5.2-1.6 10.7-2.5 16.1-3.3 5.9-.9 11.5-1.2 17.7-1.3 6.2-.1 11.9.5 17.8 1.3 5.5.8 10.9 1.7 16.1 3.3 5.3 1.6 10.5 3.9 15.6 6.3 5.3 2.5 10.4 5.4 15.3 8.6 3.8 2.5 7.5 5.3 11 8.2 3.8 3.1 7.4 6.4 10.7 10 4 4.3 7.7 8.9 10.9 13.7 3.6 5.3 6.6 11 9.3 16.8 2.1 4.7 3.9 9.7 5.2 14.7 1.2 4.4 2.1 8.9 2.6 13.4.3 3.2.2 9.9.2 9.9 0 .5.4 1 1 1 .5 0 1-.4 1-1 0 0 .2-6.7-.2-10.2-.5-4.7-1.5-9.3-2.7-13.8-1.4-5.1-3.2-10.2-5.3-15-2.7-5.9-5.9-11.7-9.5-17.1-3.3-4.9-7.1-9.6-11.1-13.9-3.4-3.7-7.1-7-10.9-10.2-3.6-3-7.3-5.8-11.2-8.4-5-3.2-10.2-6.2-15.5-8.8-5.1-2.5-10.4-4.7-15.9-6.4-5.4-1.6-10.9-2.6-16.4-3.4-3.9-.6-7.9-.9-11.8-1.1-2.3-.2-4.1-.1-6.2-.2-2 0-3.5.1-6.1.2z"/>
    <path fill="#916F6F" stroke-width=".3" d="M502.1 1027.4l2.9-5.5 65.8.3 4.4 5.2h-73.1z"/>
    <path fill="#A05A2C" stroke-width=".3" d="M481.6 873.7l-1 1.1 12.1 12.2 1.1-1.1-12.2-12.2zm-84.8.1l-1.1 1.1 24.4 24.1 1.1-1.1-24.4-24.1zm36.7 0l-1.1 1.1 23.9 24.1 1.1-1.1-23.9-24.1zm11.8 0l-1.1 1.1 24.2 24 1.1-1.1-24.2-24zm12.1 0l-1 1.1 24.2 24 1.1-1.1-24.3-24zm12.1 0l-1.1 1.1 24.2 24 1.1-1.1-24.2-24zm-60.5.1l-1.1 1.1 24.2 23.9 1.1-1.1-24.2-23.9zm12.2 0l-1.1 1.1 24.1 23.9 1.1-1.1-24.1-23.9zm-36.6.2l-1.1 1.1 24.4 23.7 1-1.1-24.3-23.7zm.2 11.7l-1.1 1.1 12.2 11.9 1-1.1-12.1-11.9z"/>
    <path fill="#A05A2C" stroke-width=".3" d="M395.7 873.7l1 1.1-12.1 12.2-1.1-1.1 12.2-12.2zm84.8.1l1.1 1.1-24.4 24.1-1.1-1.1 24.4-24.1zm-36.7 0l1.1 1.1L421 899l-1.1-1.1 23.9-24.1zm-11.8 0l1.1 1.1-24.2 24-1.1-1.1 24.2-24zm-12.1 0l1 1.1-24.2 24-1.1-1.1 24.3-24zm-12.1 0l1.1 1.1-24.2 24-1.1-1.1 24.2-24zm60.5.1l1.1 1.1-24.2 23.9-1.1-1.1 24.2-23.9zm-12.3 0l1.1 1.1-24.1 23.9-1.1-1.1 24.1-23.9zm35.2 1.3l1.3 1.2-23.2 22.5-1-1.1 22.9-22.6zm1.3 10.6l1.1 1.1-12.2 11.9-1-1.1 12.1-11.9z"/>
    <path fill="#A05A2C" stroke-width=".3" d="M457.5 897.9l-1 1.1 12 12 1.1-1.1-12.1-12zm6.1 0l-1.1 1.1 12 12 1.1-1.1-12-12zm5.9 0l-1.1 1.1 12.2 12 1.1-1.1-12.2-12zm6 0l-1 1.1 12.2 12 1-1.1-12.2-12zm18.3 0l-1.1 1.1 12.1 12 1-1.1-12-12zm-12.2.1l-1 1.1 12.2 11.8 1-1.1-12.2-11.8zm6.1 0l-1.1 1.1 12.2 11.8 1.1-1.1-12.2-11.8z"/>
    <path fill="#A05A2C" stroke-width=".3" d="M468.5 897.9l-9 9 .1.1v.2l.1.1.1.1v.2s.1 0 .1.1l.1.1v.4s.1 0 .1.1v.2l9.4-9.3-1-1.3zm18.3 0l-12.2 12 1 1.1 12.2-12-1-1.1zm6 0l-12.2 12 1.1 1.1 12.2-12-1.1-1.1zm5.9 0l-12 12 1.1 1.1 12-12-1.1-1.1zm-24.1.1l-12.2 11.8 1.1 1.1 12.2-11.8-1.1-1.1zm6.1 0l-12.2 11.8 1 1.1 12.2-11.8-1-1.1zm21.7 2.2l-9.7 9.6 1.1 1.1 9.4-9.4-.1-.1v-.1l-.2-.2h-.1s-.1 0-.1-.1v-.1l-.1-.1v-.2h-.1v-.1s-.1 0-.1-.1v-.2s-.1 0-.1-.1l.1.1c.1.1.1.1 0 0 .1.1.1.1 0 0 .1 0 0 0 0 0z"/>
    <path fill="#A05A2C" stroke-width=".3" d="M461.2 909.6v1.5l46.8.1v-1.5l-46.8-.1z"/>
    <g fill="#A05A2C" stroke-width=".3">
      <path d="M301.225 857.5h-.7v-23.3h.7z"/>
      <path d="M298.525 857.5h-.7v-23.3h.7z"/>
    </g>
    <path fill="#A05A2C" stroke-width=".3" d="M276.3 834.2h.7v23.3h-.7z"/>
    <g fill="#A05A2C" stroke-width=".3">
      <path d="M373.825 857.5h-.7v-23.3h.7z"/>
      <path d="M371.125 857.5h-.7v-23.3h.7z"/>
    </g>
    <g fill="#A05A2C" stroke-width=".3">
      <path d="M325.425 857.5h-.7v-23.3h.7z"/>
      <path d="M322.725 857.5h-.7v-23.3h.7z"/>
    </g>
    <path fill="#A05A2C" stroke-width=".3" d="M369.4 168.5v.7l-1.9 72-1.9 43.1-2.2 46.3-2.7 52.9-2.9 59.8-2.1 31.4-2.3 31-2.2 33-2.7 32.8-3.5 33.6-4.8 34-5.3 36-.2.8h.9l31.1.3h.6l.1-.6 5.8-36.2 4.8-50.8 2.8-50.6 3.2-89 3.3 89 2.8 50.6 4.8 50.8 5.8 36.2.1.6h.6l31.1-.3h.9l-.2-.8-5.3-36-4.8-34-3.5-33.6-2.7-32.8-2.2-33-2.3-31-2.1-31.4-2.9-59.8-2.7-52.9-2.2-46.3-1.9-43.1-1.9-72v-.7h-.8l-13.3.1h-1.4l-13.3-.1h-.5zm1.5 1.5l12.6.1v24.2h-13.2l.6-24.3zm26.7 0l.7 24.3H385v-24.2l12.6-.1zm-27.4 25.9h13.3v5.2h-13.4l.1-5.2zm14.8 0h13.3l.2 5.2H385v-5.2zm-15 7.1h13.5v225.8l-4 109-2.8 50.6-4.8 50.7v.1l-5.8 35.5-29.6-.3 5.2-35.2 4.7-34 3.5-33.7 2.7-32.8 2.2-33 2.3-30.9 2.1-31.4 2.9-59.8 2.7-52.9 2.2-46.3 1.9-43.1L370 203zm15 0h13.5l1 38.2 1.9 43.1 2.2 46.3 2.7 52.9 2.9 59.8 2.1 31.4 2.3 30.9 2.2 33 2.7 32.8 3.5 33.7 4.7 34 5.2 35.2-29.6.3-5.8-35.5v-.1l-4.8-50.7-2.8-50.6-4-109L385 203z"/>
    <path fill="#A05A2C" stroke-width=".3" d="M497.6 1022h4.7m-4.4-3.2h4.1m-5.5 8.6h6.8l-1.1-1.4v-4s1.2-.3 1.4-.7c.2-.4.2-1.6 0-1.9-.2-.3-1.6-.6-1.6-.6s.3-2.1-.2-2.7c-.5-.6-1.3-.5-1.3-.5h-.9s-.9-.1-1.3.5c-.5.6-.2 2.7-.2 2.7s-1.4.3-1.6.6c-.2.3-.2 1.6 0 1.9.2.4 1.4.7 1.4.7v4l-1.4 1.4z"/>
    <path fill="#A05A2C" stroke-width=".3" d="M272.2 857.2l1.8 3.9 1.2 4.5.6 7.9h217.1l.6-7.9 1.1-4.5 1.8-3.9H384.3v3.3-3.3H272.2z"/>
    <g fill="#A05A2C" stroke-width=".3">
      <path d="M394.7 834.2h.7v23.3h-.7z"/>
      <path d="M397.4 834.1h.7v23.3h-.7z"/>
    </g>
    <g fill="#A05A2C" stroke-width=".3">
      <path d="M443.1 834.2h.7v23.3h-.7z"/>
      <path d="M445.8 834.1h.7v23.3h-.7z"/>
    </g>
    <g fill="#A05A2C" stroke-width=".3">
      <path d="M418.9 834.2h.7v23.3h-.7z"/>
      <path d="M421.6 834.1h.7v23.3h-.7z"/>
    </g>
    <path fill="#A05A2C" stroke-width=".3" d="M271.2 856.1v1.5h226v-1.5h-226z"/>
    <path fill="#A05A2C" stroke-width=".3" d="M493.3 868H384.2"/>
    <g fill="#A05A2C" stroke-width=".3">
      <path d="M383.302 857.616v15.9h2v-15.9h-2z"/>
      <path d="M383.302 867.416h2c.3 0 .5.2.5.5v.2c0 .3-.2.5-.5.5h-2c-.3 0-.5-.2-.5-.5v-.2c0-.3.2-.5.5-.5z"/>
      <path d="M383.302 858.816h1.9c.3 0 .5.2.5.5v1.1c0 .3-.2.5-.5.5h-1.9c-.3 0-.5-.2-.5-.5v-1.1c0-.3.2-.5.5-.5z"/>
      <path d="M383.802 857.616h.9c.3 0 .5.2.5.5v3.4c0 .3-.2.5-.5.5h-.9c-.3 0-.5-.2-.5-.5v-3.4c0-.2.2-.5.5-.5z"/>
      <path d="M384.202 857.616h.2c.3 0 .5.2.5.5v3c0 .3-.2.5-.5.5h-.2c-.3 0-.5-.2-.5-.5v-3c-.1-.2.2-.5.5-.5z"/>
    </g>
    <g fill="#A05A2C" stroke-width=".3">
      <path d="M383.34 857.616v15.9h2v-15.9h-2z"/>
      <path d="M383.34 867.416h2c.3 0 .5.2.5.5v.2c0 .3-.2.5-.5.5h-2c-.3 0-.5-.2-.5-.5v-.2c0-.3.2-.5.5-.5z"/>
      <path d="M383.34 858.816h1.9c.3 0 .5.2.5.5v1.1c0 .3-.2.5-.5.5h-1.9c-.3 0-.5-.2-.5-.5v-1.1c0-.3.2-.5.5-.5z"/>
      <path d="M383.84 857.616h.9c.3 0 .5.2.5.5v3.4c0 .3-.2.5-.5.5h-.9c-.3 0-.5-.2-.5-.5v-3.4c0-.2.2-.5.5-.5z"/>
      <path d="M384.24 857.616h.2c.3 0 .5.2.5.5v3c0 .3-.2.5-.5.5h-.2c-.3 0-.5-.2-.5-.5v-3c-.1-.2.2-.5.5-.5z"/>
    </g>
    <g fill="#A05A2C" stroke-width=".3">
      <path d="M395.44 857.616v15.9h2v-15.9h-2z"/>
      <path d="M395.44 867.416h2c.3 0 .5.2.5.5v.2c0 .3-.2.5-.5.5h-2c-.3 0-.5-.2-.5-.5v-.2c0-.3.2-.5.5-.5z"/>
      <path d="M395.44 858.816h1.9c.3 0 .5.2.5.5v1.1c0 .3-.2.5-.5.5h-1.9c-.3 0-.5-.2-.5-.5v-1.1c0-.3.2-.5.5-.5z"/>
      <path d="M395.94 857.616h.9c.3 0 .5.2.5.5v3.4c0 .3-.2.5-.5.5h-.9c-.3 0-.5-.2-.5-.5v-3.4c0-.2.2-.5.5-.5z"/>
      <path d="M396.34 857.616h.2c.3 0 .5.2.5.5v3c0 .3-.2.5-.5.5h-.2c-.3 0-.5-.2-.5-.5v-3c-.1-.2.2-.5.5-.5z"/>
    </g>
    <g fill="#A05A2C" stroke-width=".3">
      <path d="M407.54 857.616v15.9h2v-15.9h-2z"/>
      <path d="M407.54 867.416h2c.3 0 .5.2.5.5v.2c0 .3-.2.5-.5.5h-2c-.3 0-.5-.2-.5-.5v-.2c0-.3.2-.5.5-.5z"/>
      <path d="M407.54 858.816h1.9c.3 0 .5.2.5.5v1.1c0 .3-.2.5-.5.5h-1.9c-.3 0-.5-.2-.5-.5v-1.1c0-.3.2-.5.5-.5z"/>
      <path d="M408.04 857.616h.9c.3 0 .5.2.5.5v3.4c0 .3-.2.5-.5.5h-.9c-.3 0-.5-.2-.5-.5v-3.4c0-.2.2-.5.5-.5z"/>
      <path d="M408.44 857.616h.2c.3 0 .5.2.5.5v3c0 .3-.2.5-.5.5h-.2c-.3 0-.5-.2-.5-.5v-3c-.1-.2.2-.5.5-.5z"/>
    </g>
    <g fill="#A05A2C" stroke-width=".3">
      <path d="M419.64 857.616v15.9h2v-15.9h-2z"/>
      <path d="M419.64 867.416h2c.3 0 .5.2.5.5v.2c0 .3-.2.5-.5.5h-2c-.3 0-.5-.2-.5-.5v-.2c0-.3.2-.5.5-.5z"/>
      <path d="M419.64 858.816h1.9c.3 0 .5.2.5.5v1.1c0 .3-.2.5-.5.5h-1.9c-.3 0-.5-.2-.5-.5v-1.1c0-.3.2-.5.5-.5z"/>
      <path d="M420.14 857.616h.9c.3 0 .5.2.5.5v3.4c0 .3-.2.5-.5.5h-.9c-.3 0-.5-.2-.5-.5v-3.4c0-.2.2-.5.5-.5z"/>
      <path d="M420.54 857.616h.2c.3 0 .5.2.5.5v3c0 .3-.2.5-.5.5h-.2c-.3 0-.5-.2-.5-.5v-3c-.1-.2.2-.5.5-.5z"/>
    </g>
    <g fill="#A05A2C" stroke-width=".3">
      <path d="M431.74 857.616v15.9h2v-15.9h-2z"/>
      <path d="M431.74 867.416h2c.3 0 .5.2.5.5v.2c0 .3-.2.5-.5.5h-2c-.3 0-.5-.2-.5-.5v-.2c0-.3.2-.5.5-.5z"/>
      <path d="M431.74 858.816h1.9c.3 0 .5.2.5.5v1.1c0 .3-.2.5-.5.5h-1.9c-.3 0-.5-.2-.5-.5v-1.1c0-.3.2-.5.5-.5z"/>
      <path d="M432.24 857.616h.9c.3 0 .5.2.5.5v3.4c0 .3-.2.5-.5.5h-.9c-.3 0-.5-.2-.5-.5v-3.4c0-.2.2-.5.5-.5z"/>
      <path d="M432.64 857.616h.2c.3 0 .5.2.5.5v3c0 .3-.2.5-.5.5h-.2c-.3 0-.5-.2-.5-.5v-3c-.1-.2.2-.5.5-.5z"/>
    </g>
    <g fill="#A05A2C" stroke-width=".3">
      <path d="M443.84 857.616v15.9h2v-15.9h-2z"/>
      <path d="M443.84 867.416h2c.3 0 .5.2.5.5v.2c0 .3-.2.5-.5.5h-2c-.3 0-.5-.2-.5-.5v-.2c0-.3.2-.5.5-.5z"/>
      <path d="M443.84 858.816h1.9c.3 0 .5.2.5.5v1.1c0 .3-.2.5-.5.5h-1.9c-.3 0-.5-.2-.5-.5v-1.1c0-.3.2-.5.5-.5z"/>
      <path d="M444.34 857.616h.9c.3 0 .5.2.5.5v3.4c0 .3-.2.5-.5.5h-.9c-.3 0-.5-.2-.5-.5v-3.4c0-.2.2-.5.5-.5z"/>
      <path d="M444.74 857.616h.2c.3 0 .5.2.5.5v3c0 .3-.2.5-.5.5h-.2c-.3 0-.5-.2-.5-.5v-3c-.1-.2.2-.5.5-.5z"/>
    </g>
    <g fill="#A05A2C" stroke-width=".3">
      <path d="M455.94 857.616v15.9h2v-15.9h-2z"/>
      <path d="M455.94 867.416h2c.3 0 .5.2.5.5v.2c0 .3-.2.5-.5.5h-2c-.3 0-.5-.2-.5-.5v-.2c0-.3.2-.5.5-.5z"/>
      <path d="M455.94 858.816h1.9c.3 0 .5.2.5.5v1.1c0 .3-.2.5-.5.5h-1.9c-.3 0-.5-.2-.5-.5v-1.1c0-.3.2-.5.5-.5z"/>
      <path d="M456.44 857.616h.9c.3 0 .5.2.5.5v3.4c0 .3-.2.5-.5.5h-.9c-.3 0-.5-.2-.5-.5v-3.4c0-.2.2-.5.5-.5z"/>
      <path d="M456.84 857.616h.2c.3 0 .5.2.5.5v3c0 .3-.2.5-.5.5h-.2c-.3 0-.5-.2-.5-.5v-3c-.1-.2.2-.5.5-.5z"/>
    </g>
    <g fill="#A05A2C" stroke-width=".3">
      <path d="M468.04 857.616v15.9h2v-15.9h-2z"/>
      <path d="M468.04 867.416h2c.3 0 .5.2.5.5v.2c0 .3-.2.5-.5.5h-2c-.3 0-.5-.2-.5-.5v-.2c0-.3.2-.5.5-.5z"/>
      <path d="M468.04 858.816h1.9c.3 0 .5.2.5.5v1.1c0 .3-.2.5-.5.5h-1.9c-.3 0-.5-.2-.5-.5v-1.1c0-.3.2-.5.5-.5z"/>
      <path d="M468.54 857.616h.9c.3 0 .5.2.5.5v3.4c0 .3-.2.5-.5.5h-.9c-.3 0-.5-.2-.5-.5v-3.4c0-.2.2-.5.5-.5z"/>
      <path d="M468.94 857.616h.2c.3 0 .5.2.5.5v3c0 .3-.2.5-.5.5h-.2c-.3 0-.5-.2-.5-.5v-3c-.1-.2.2-.5.5-.5z"/>
    </g>
    <g fill="#A05A2C" stroke-width=".3">
      <path d="M480.14 857.616v15.9h2v-15.9h-2z"/>
      <path d="M480.14 867.416h2c.3 0 .5.2.5.5v.2c0 .3-.2.5-.5.5h-2c-.3 0-.5-.2-.5-.5v-.2c0-.3.2-.5.5-.5z"/>
      <path d="M480.14 858.816h1.9c.3 0 .5.2.5.5v1.1c0 .3-.2.5-.5.5h-1.9c-.3 0-.5-.2-.5-.5v-1.1c0-.3.2-.5.5-.5z"/>
      <path d="M480.64 857.616h.9c.3 0 .5.2.5.5v3.4c0 .3-.2.5-.5.5h-.9c-.3 0-.5-.2-.5-.5v-3.4c0-.2.2-.5.5-.5z"/>
      <path d="M481.04 857.616h.2c.3 0 .5.2.5.5v3c0 .3-.2.5-.5.5h-.2c-.3 0-.5-.2-.5-.5v-3c-.1-.2.2-.5.5-.5z"/>
    </g>
    <g fill="#A05A2C" stroke-width=".3">
      <path d="M349.625 857.5h-.7v-23.3h.7z"/>
      <path d="M346.925 857.5h-.7v-23.3h.7z"/>
    </g>
    <path fill="#A05A2C" stroke-width=".3" d="M275.9 832.6v2.6h216.8v-2.6H275.9z"/>
    <path fill="#A05A2C" fill-opacity=".502" stroke-width=".358" d="M276.1 851v5.2h216.3V851H276.1z"/>
    <path fill="#A05A2C" stroke-width=".3" d="M383.5 670.2l-59.7.1.1 2.2h1.5c3.8.7 5.3 8 5.5 16.3h106.5c.2-8.3 1.7-15.6 5.5-16.3h1.5l.1-2.2-59.7-.1h-1.3z"/>
    <path fill="#A05A2C" stroke-width=".3" d="M443.7 672.6h-60.3"/>
    <path fill="#A05A2C" stroke-width=".291" d="M423.1 672.7h1.6v16h-1.6z"/>
    <path fill="#A05A2C" stroke-width=".291" d="M413.2 672.7h1.6v16h-1.6z"/>
    <path fill="#A05A2C" stroke-width=".291" d="M403.3 672.7h1.6v16h-1.6z"/>
    <path fill="#A05A2C" stroke-width=".291" d="M393.4 672.7h1.6v16h-1.6z"/>
    <path fill="#A05A2C" stroke-width=".291" d="M383.5 672.7h1.6v16h-1.6z"/>
    <path fill="#A05A2C" stroke-width=".291" d="M433 672.7h1.6v16H433z"/>
    <path fill="#A05A2C" fill-opacity=".502" stroke-width=".3" d="M324.8 665v5.2h118.9V665H324.8z"/>
    <path fill="#A05A2C" stroke-width=".3" d="M570.6 1022.2l1.3-1.8-10-6.3h-52.2l-5.9 6.2 1.5 1.7 65.3.2z"/>
    <path fill="#A05A2C" stroke-width=".3" d="M385.1 116.7s3.8.7 6.7 3c5.8 5 7.3 8.8 9.3 14 1.3 3.7 2.1 7.9 2.1 7.9l-4.4-.1s-1.5-5.7-2.5-8.2c-1-2.5-3.4-6.8-5.9-9.4s-5.4-3.2-5.4-3.2l.1-4z"/>
    <path fill="#A05A2C" stroke-width=".3" d="M365.1 141.2V163h38.4v-21.8h-38.4z"/>
    <path fill="#A05A2C" stroke-width=".3" d="M382.3 75.5h4v45.6h-4z"/>
    <path fill="#A05A2C" stroke-width=".3" d="M383 117.2h2.6v27H383z"/>
    <path fill="#999" stroke-width=".3" d="M388.1 32.3h.6v3.4h-.6z"/>
    <path fill="#999" stroke-width=".3" d="M379.5 34.8h9.7v1.9h-9.7z"/>
    <path fill="#999" stroke-width=".3" d="M401.8 134.5h4.9v8.1h-4.9z"/>
    <path fill="#A05A2C" stroke-width=".298" d="M390.5 170.7h1.6v25.1h-1.6z"/>
    <path fill="#A05A2C" stroke-width=".298" d="M383.4 170.7h1.6v25.1h-1.6z"/>
    <path fill="#A05A2C" stroke-width=".298" d="M397.9 170.8h1.6v25.1h-1.6z"/>
    <path fill="#A05A2C" stroke-width=".298" d="M399.6 170.7l9.3.1s-2.4 1-5.2 6.6c-2.8 5.6-4.1 18.4-4.1 18.4v-25.1z"/>
    <path stroke-width=".3" d="M383.4 31.8h1.8v45.6h-1.8z"/>
    <path fill="#916F6F" stroke-width=".3" d="M266.4 1027.4l-2.9-5.5-65.8.3-4.4 5.2h73.1z"/>
    <path fill="#A05A2C" stroke-width=".3" d="M287 873.7l1 1.1-12.1 12.2-1.1-1.1 12.2-12.2zm84.8.1l1.1 1.1-24.4 24.1-1.1-1.1 24.4-24.1zm-36.8 0l1.1 1.1-23.9 24.1-1.1-1.1 23.9-24.1zm-11.8 0l1.1 1.1-24.2 24-1.1-1.1 24.2-24zm-12.1 0l1 1.1-24.2 24-1.1-1.1 24.3-24zm-12.1 0l1.1 1.1-24.2 24-1.1-1.1 24.2-24zm60.5.1l1.1 1.1-24.2 23.9-1.1-1.1 24.2-23.9zm-12.2 0l1.1 1.1-24.1 23.9-1.1-1.1 24.1-23.9zm36.6.2l1.1 1.1-24.4 23.7-1-1.1 24.3-23.7zm-.2 11.7l1.1 1.1-12.2 11.9-1-1.1 12.1-11.9z"/>
    <path fill="#A05A2C" stroke-width=".3" d="M372.8 873.7l-1 1.1 12.1 12.2 1.1-1.1-12.2-12.2zm-84.8.1l-1.1 1.1 24.4 24.1 1.1-1.1-24.4-24.1zm36.7 0l-1.1 1.1 23.9 24.1 1.1-1.1-23.9-24.1zm11.9 0l-1.1 1.1 24.2 24 1.1-1.1-24.2-24zm12 0l-1 1.1 24.2 24 1.1-1.1-24.3-24zm12.2 0l-1.1 1.1 24.2 24 1.1-1.1-24.2-24zm-60.6.1l-1.1 1.1 24.2 23.9 1.1-1.1-24.2-23.9zm12.3 0l-1.1 1.1 24.1 23.9 1.1-1.1-24.1-23.9zm-36.6.2l-1.1 1.1 24.4 23.7 1-1.1-24.3-23.7zm.2 11.7l-1.1 1.1 12.2 11.9 1-1.1-12.1-11.9z"/>
    <path fill="#A05A2C" stroke-width=".3" d="M311 897.9l1 1.1-12 12-1.1-1.1 12.1-12zm-6 0l1.1 1.1-12 12-1.1-1.1 12-12zm-5.9 0l1.1 1.1-12.2 12-1.1-1.1 12.2-12zm-6.1 0l1 1.1-12.2 12-1-1.1 12.2-12zm-18.2 0l1.1 1.1-12.1 12-1-1.1 12-12zm12.1.1l1 1.1-12.2 11.8-1-1.1 12.2-11.8zm-6 0l1.1 1.1-12.2 11.8-1.1-1.1 12.2-11.8z"/>
    <path fill="#A05A2C" stroke-width=".3" d="M371.2 874.2v24.2h2v-24.2h-2zm24.1 0v24.2h2v-24.2h-2zm-84.7.1v24.1h2v-24.1h-2zm13.9 0h-2l.2 24h2l-.2-24zm119.5 0l-.2 24h2l.2-24h-2zm11.9 0v24.1h2v-24.1h-2zm-169.7.1l.2 23.9h2l-.2-23.9h-2zm12.3 0v23.9h2v-23.9h-2zm36.1 0l.3 23.9h2l-.3-23.9h-2zm12.2 0l.1 23.9h2l-.1-23.9h-2zm12.1 0l.1 23.9h2l-.1-23.9h-2zm24.2 0l.2 23.9h2l.2-23.9h-2.4zm24.5 0l-.1 23.9h2l.1-23.9h-2zm12.1 0l-.1 23.9h2l.1-23.9h-2zm12.3 0l-.3 23.9h2l.3-23.9h-2zm36 0v23.9h2v-23.9h-2zm12.3 0l-.2 23.9h2l.2-23.9h-2zm-206 8v16h2v-16h-2zm217.9 0v16h2v-16h-2z"/>
    <path fill="#A05A2C" stroke-width=".3" d="M300 897.9l9 9-.1.1v.2l-.1.1-.1.1v.2s-.1 0-.1.1l-.1.1v.4s-.1 0-.1.1v.2l-9.4-9.3 1-1.3zm-18.3 0l12.2 12-1 1.1-12.2-12 1-1.1zm-6 0l12.2 12-1.1 1.1-12.2-12 1.1-1.1zm-5.9 0l12 12-1.1 1.1-12-12 1.1-1.1zm24.1.1l12.2 11.8-1.1 1.1-12.2-11.8 1.1-1.1zm-6.1 0l12.2 11.8-1 1.1-12.2-11.8 1-1.1zm-21.7 2.2l9.7 9.6-1.1 1.1-9.4-9.4.1-.1v-.1l.2-.2h.1s.1 0 .1-.1v-.1l.1-.1v-.2h.1v-.1s.1 0 .1-.1v-.2s.1 0 .1-.1l-.1.1c-.1.1-.1.1 0 0-.1.1-.1.1 0 0-.1 0 0 0 0 0z"/>
    <path fill="#A05A2C" stroke-width=".3" d="M307.3 909.6v1.5l-46.8.1v-1.5l46.8-.1z"/>
    <path fill="#A05A2C" stroke-width=".3" d="M325 873.5l1.3 2.2-67.8 137.9-.3.9-50.6-.1 1.8-1.8 67.4-138.2 1.3-.8H325zm-2.4 3h-43.4l-66 135.2 43.1-.3 66.3-134.9z"/>
    <path fill="#A05A2C" stroke-width=".3" d="M271 1022h-4.7m4.3-3.2h-4.1m5.6 8.6h-6.8l1.1-1.4v-4s-1.2-.3-1.4-.7c-.2-.4-.2-1.6 0-1.9.2-.3 1.6-.6 1.6-.6s-.3-2.1.2-2.7c.5-.6 1.3-.5 1.3-.5h.9s.9-.1 1.3.5c.5.6.2 2.7.2 2.7s1.4.3 1.6.6c.2.3.2 1.6 0 1.9-.2.4-1.4.7-1.4.7v4l1.4 1.4z"/>
    <path fill="#A05A2C" stroke-width=".3" d="M275.3 868h109.1"/>
    <g fill="#A05A2C" stroke-width=".3">
      <path d="M385.222 857.616v15.9h-2v-15.9h2z"/>
      <path d="M385.222 867.416h-2c-.3 0-.5.2-.5.5v.2c0 .3.2.5.5.5h2c.3 0 .5-.2.5-.5v-.2c0-.3-.2-.5-.5-.5z"/>
      <path d="M385.222 858.816h-1.9c-.3 0-.5.2-.5.5v1.1c0 .3.2.5.5.5h1.9c.3 0 .5-.2.5-.5v-1.1c0-.3-.2-.5-.5-.5z"/>
      <path d="M384.722 857.616h-.9c-.3 0-.5.2-.5.5v3.4c0 .3.2.5.5.5h.9c.3 0 .5-.2.5-.5v-3.4c0-.2-.2-.5-.5-.5z"/>
      <path d="M384.322 857.616h-.2c-.3 0-.5.2-.5.5v3c0 .3.2.5.5.5h.2c.3 0 .5-.2.5-.5v-3c.1-.2-.2-.5-.5-.5z"/>
    </g>
    <g fill="#A05A2C" stroke-width=".3">
      <path d="M385.185 857.616v15.9h-2v-15.9h2z"/>
      <path d="M385.185 867.416h-2c-.3 0-.5.2-.5.5v.2c0 .3.2.5.5.5h2c.3 0 .5-.2.5-.5v-.2c0-.3-.2-.5-.5-.5z"/>
      <path d="M385.185 858.816h-1.9c-.3 0-.5.2-.5.5v1.1c0 .3.2.5.5.5h1.9c.3 0 .5-.2.5-.5v-1.1c0-.3-.2-.5-.5-.5z"/>
      <path d="M384.685 857.616h-.9c-.3 0-.5.2-.5.5v3.4c0 .3.2.5.5.5h.9c.3 0 .5-.2.5-.5v-3.4c0-.2-.2-.5-.5-.5z"/>
      <path d="M384.285 857.616h-.2c-.3 0-.5.2-.5.5v3c0 .3.2.5.5.5h.2c.3 0 .5-.2.5-.5v-3c.1-.2-.2-.5-.5-.5z"/>
    </g>
    <g fill="#A05A2C" stroke-width=".3">
      <path d="M373.085 857.616v15.9h-2v-15.9h2z"/>
      <path d="M373.085 867.416h-2c-.3 0-.5.2-.5.5v.2c0 .3.2.5.5.5h2c.3 0 .5-.2.5-.5v-.2c0-.3-.2-.5-.5-.5z"/>
      <path d="M373.085 858.816h-1.9c-.3 0-.5.2-.5.5v1.1c0 .3.2.5.5.5h1.9c.3 0 .5-.2.5-.5v-1.1c0-.3-.2-.5-.5-.5z"/>
      <path d="M372.585 857.616h-.9c-.3 0-.5.2-.5.5v3.4c0 .3.2.5.5.5h.9c.3 0 .5-.2.5-.5v-3.4c0-.2-.2-.5-.5-.5z"/>
      <path d="M372.185 857.616h-.2c-.3 0-.5.2-.5.5v3c0 .3.2.5.5.5h.2c.3 0 .5-.2.5-.5v-3c.1-.2-.2-.5-.5-.5z"/>
    </g>
    <g fill="#A05A2C" stroke-width=".3">
      <path d="M360.985 857.616v15.9h-2v-15.9h2z"/>
      <path d="M360.985 867.416h-2c-.3 0-.5.2-.5.5v.2c0 .3.2.5.5.5h2c.3 0 .5-.2.5-.5v-.2c0-.3-.2-.5-.5-.5z"/>
      <path d="M360.985 858.816h-1.9c-.3 0-.5.2-.5.5v1.1c0 .3.2.5.5.5h1.9c.3 0 .5-.2.5-.5v-1.1c0-.3-.2-.5-.5-.5z"/>
      <path d="M360.485 857.616h-.9c-.3 0-.5.2-.5.5v3.4c0 .3.2.5.5.5h.9c.3 0 .5-.2.5-.5v-3.4c0-.2-.2-.5-.5-.5z"/>
      <path d="M360.085 857.616h-.2c-.3 0-.5.2-.5.5v3c0 .3.2.5.5.5h.2c.3 0 .5-.2.5-.5v-3c.1-.2-.2-.5-.5-.5z"/>
    </g>
    <g fill="#A05A2C" stroke-width=".3">
      <path d="M348.885 857.616v15.9h-2v-15.9h2z"/>
      <path d="M348.885 867.416h-2c-.3 0-.5.2-.5.5v.2c0 .3.2.5.5.5h2c.3 0 .5-.2.5-.5v-.2c0-.3-.2-.5-.5-.5z"/>
      <path d="M348.885 858.816h-1.9c-.3 0-.5.2-.5.5v1.1c0 .3.2.5.5.5h1.9c.3 0 .5-.2.5-.5v-1.1c0-.3-.2-.5-.5-.5z"/>
      <path d="M348.385 857.616h-.9c-.3 0-.5.2-.5.5v3.4c0 .3.2.5.5.5h.9c.3 0 .5-.2.5-.5v-3.4c0-.2-.2-.5-.5-.5z"/>
      <path d="M347.985 857.616h-.2c-.3 0-.5.2-.5.5v3c0 .3.2.5.5.5h.2c.3 0 .5-.2.5-.5v-3c.1-.2-.2-.5-.5-.5z"/>
    </g>
    <g fill="#A05A2C" stroke-width=".3">
      <path d="M336.785 857.616v15.9h-2v-15.9h2z"/>
      <path d="M336.785 867.416h-2c-.3 0-.5.2-.5.5v.2c0 .3.2.5.5.5h2c.3 0 .5-.2.5-.5v-.2c0-.3-.2-.5-.5-.5z"/>
      <path d="M336.785 858.816h-1.9c-.3 0-.5.2-.5.5v1.1c0 .3.2.5.5.5h1.9c.3 0 .5-.2.5-.5v-1.1c0-.3-.2-.5-.5-.5z"/>
      <path d="M336.285 857.616h-.9c-.3 0-.5.2-.5.5v3.4c0 .3.2.5.5.5h.9c.3 0 .5-.2.5-.5v-3.4c0-.2-.2-.5-.5-.5z"/>
      <path d="M335.885 857.616h-.2c-.3 0-.5.2-.5.5v3c0 .3.2.5.5.5h.2c.3 0 .5-.2.5-.5v-3c.1-.2-.2-.5-.5-.5z"/>
    </g>
    <g fill="#A05A2C" stroke-width=".3">
      <path d="M324.685 857.616v15.9h-2v-15.9h2z"/>
      <path d="M324.685 867.416h-2c-.3 0-.5.2-.5.5v.2c0 .3.2.5.5.5h2c.3 0 .5-.2.5-.5v-.2c0-.3-.2-.5-.5-.5z"/>
      <path d="M324.685 858.816h-1.9c-.3 0-.5.2-.5.5v1.1c0 .3.2.5.5.5h1.9c.3 0 .5-.2.5-.5v-1.1c0-.3-.2-.5-.5-.5z"/>
      <path d="M324.185 857.616h-.9c-.3 0-.5.2-.5.5v3.4c0 .3.2.5.5.5h.9c.3 0 .5-.2.5-.5v-3.4c0-.2-.2-.5-.5-.5z"/>
      <path d="M323.785 857.616h-.2c-.3 0-.5.2-.5.5v3c0 .3.2.5.5.5h.2c.3 0 .5-.2.5-.5v-3c.1-.2-.2-.5-.5-.5z"/>
    </g>
    <g fill="#A05A2C" stroke-width=".3">
      <path d="M312.585 857.616v15.9h-2v-15.9h2z"/>
      <path d="M312.585 867.416h-2c-.3 0-.5.2-.5.5v.2c0 .3.2.5.5.5h2c.3 0 .5-.2.5-.5v-.2c0-.3-.2-.5-.5-.5z"/>
      <path d="M312.585 858.816h-1.9c-.3 0-.5.2-.5.5v1.1c0 .3.2.5.5.5h1.9c.3 0 .5-.2.5-.5v-1.1c0-.3-.2-.5-.5-.5z"/>
      <path d="M312.085 857.616h-.9c-.3 0-.5.2-.5.5v3.4c0 .3.2.5.5.5h.9c.3 0 .5-.2.5-.5v-3.4c0-.2-.2-.5-.5-.5z"/>
      <path d="M311.685 857.616h-.2c-.3 0-.5.2-.5.5v3c0 .3.2.5.5.5h.2c.3 0 .5-.2.5-.5v-3c.1-.2-.2-.5-.5-.5z"/>
    </g>
    <g fill="#A05A2C" stroke-width=".3">
      <path d="M300.485 857.616v15.9h-2v-15.9h2z"/>
      <path d="M300.485 867.416h-2c-.3 0-.5.2-.5.5v.2c0 .3.2.5.5.5h2c.3 0 .5-.2.5-.5v-.2c0-.3-.2-.5-.5-.5z"/>
      <path d="M300.485 858.816h-1.9c-.3 0-.5.2-.5.5v1.1c0 .3.2.5.5.5h1.9c.3 0 .5-.2.5-.5v-1.1c0-.3-.2-.5-.5-.5z"/>
      <path d="M299.985 857.616h-.9c-.3 0-.5.2-.5.5v3.4c0 .3.2.5.5.5h.9c.3 0 .5-.2.5-.5v-3.4c0-.2-.2-.5-.5-.5z"/>
      <path d="M299.585 857.616h-.2c-.3 0-.5.2-.5.5v3c0 .3.2.5.5.5h.2c.3 0 .5-.2.5-.5v-3c.1-.2-.2-.5-.5-.5z"/>
    </g>
    <g fill="#A05A2C" stroke-width=".3">
      <path d="M288.385 857.616v15.9h-2v-15.9h2z"/>
      <path d="M288.385 867.416h-2c-.3 0-.5.2-.5.5v.2c0 .3.2.5.5.5h2c.3 0 .5-.2.5-.5v-.2c0-.3-.2-.5-.5-.5z"/>
      <path d="M288.385 858.816h-1.9c-.3 0-.5.2-.5.5v1.1c0 .3.2.5.5.5h1.9c.3 0 .5-.2.5-.5v-1.1c0-.3-.2-.5-.5-.5z"/>
      <path d="M287.885 857.616h-.9c-.3 0-.5.2-.5.5v3.4c0 .3.2.5.5.5h.9c.3 0 .5-.2.5-.5v-3.4c0-.2-.2-.5-.5-.5z"/>
      <path d="M287.485 857.616h-.2c-.3 0-.5.2-.5.5v3c0 .3.2.5.5.5h.2c.3 0 .5-.2.5-.5v-3c.1-.2-.2-.5-.5-.5z"/>
    </g>
    <path fill="#A05A2C" stroke-width=".3" d="M324.8 672.6h60.3"/>
    <path fill="#A05A2C" stroke-width=".291" d="M343.9 672.7h1.6v16h-1.6z"/>
    <path fill="#A05A2C" stroke-width=".291" d="M353.7 672.7h1.6v16h-1.6z"/>
    <path fill="#A05A2C" stroke-width=".291" d="M363.6 672.7h1.6v16h-1.6z"/>
    <path fill="#A05A2C" stroke-width=".291" d="M373.5 672.7h1.6v16h-1.6z"/>
    <path fill="#A05A2C" stroke-width=".291" d="M334 672.7h1.6v16H334z"/>
    <path fill="#A05A2C" stroke-width=".3" d="M197.9 1022.2l-1.3-1.8 10-6.3h52.2l5.9 6.2-1.5 1.7-65.3.2z"/>
    <path fill="#A05A2C" stroke-width=".3" d="M383.4 116.7s-3.8.7-6.7 3c-5.8 5-7.3 8.8-9.3 14-1.3 3.7-2.1 7.9-2.1 7.9l4.4-.1s1.5-5.7 2.5-8.2c1-2.5 3.4-6.8 5.9-9.4s5.4-3.2 5.4-3.2l-.1-4z"/>
    <path fill="#999" stroke-width=".3" d="M402.4 144.4h4v9.1h-4z"/>
    <path fill="#A05A2C" fill-opacity=".502" stroke-width=".3" d="M358.6 155.9v5.8H410v-5.8h-51.4z"/>
    <path fill="#A05A2C" stroke-width=".3" d="M357.9 161v9.7h52.8V161h-52.8z"/>
    <path fill="#A05A2C" stroke-width=".3" d="M382.3 75.5h4v45.6h-4z"/>
    <path fill="#999" stroke-width=".3" d="M380.7 78.7h3v8.6h-3z"/>
    <path fill="#999" stroke-width=".3" d="M380.7 89.6h3v8.6h-3z"/>
    <path fill="#999" stroke-width=".3" d="M380.7 100.6h3v8.6h-3z"/>
    <path fill="#A05A2C" stroke-width=".3" d="M383 117.2h2.6v27H383z"/>
    <path fill="#999" stroke-width=".3" d="M380.7 111.6h3v8.6h-3z"/>
    <path fill="#999" stroke-width=".3" d="M379.8 32.3h.6v3.4h-.6z"/>
    <path fill="#999" stroke-width=".3" d="M379.3 34.8h9.7v1.9h-9.7z"/>
    <path fill="#999" stroke-width=".3" d="M362.2 144.4h4v9.1h-4z"/>
    <path fill="#999" stroke-width=".3" d="M361.8 134.5h4.9v8.1h-4.9z"/>
    <path fill="#A05A2C" stroke-width=".298" d="M376.3 170.7h1.6v25.1h-1.6z"/>
    <path fill="#A05A2C" stroke-width=".298" d="M383.5 170.7h1.6v25.1h-1.6z"/>
    <path fill="#A05A2C" stroke-width=".298" d="M368.9 170.8h1.6v25.1h-1.6z"/>
    <path fill="#A05A2C" stroke-width=".298" d="M368.9 170.7l-9.3.1s2.4 1 5.2 6.6c2.8 5.6 4.1 18.4 4.1 18.4v-25.1z"/>
    <path fill="#A05A2C" stroke-width=".3" d="M266.7 897.7l109.1.1 8.5-.1v1.1h-16l-11.2 1.8-.3-.6c-.3-.7-1-1.1-1.8-1.3h-2.1c-.1 0-.2 0-.2.1-1.4.4-2.4 1.9-2.1 3l.2.6-1.7.4-.8-1.9c-.6-1.2-1.3-1.9-2-2.2h-2.5c-.1 0-.3.1-.4.1-1.8.8-2 2.7-1.5 4l.7 1.8-1.7.5-1.5-3.6c-1-2.6-3.8-3-5.3-2.4-1.3.5-2.7 2.9-1.8 5l1.6 3.6-1.7.6-3.6-7.8c-.9-1.9-3.1-2.1-4.5-1.4-1.3.6-2.4 2.7-1.4 4.6l3.8 7.4-1.8.9-4.8-9.5c-1.3-2.5-4-2.6-5.5-1.6s-2.3 3.3-.8 5.7l5.2 8.9-1.5.9-2.7-4.3c-1.1-1.7-3.8-2.1-5.2-.9s-1.9 3.2-.7 5.1l2.6 3.9-1.4 1.2-.6-.9c-.7-1.1-2.8-1.3-4.2-.2s-1.4 3.2-.8 4l.6.8-6.4 5.9.2-1.1 15.5-31.4h-47.8l.3-.8z"/>
    <path fill="#A05A2C" stroke-width=".3" d="M501.8 897.7l-109.1.1-8.5-.1v1.1h16l11.2 1.8.3-.6c.3-.7 1-1.1 1.8-1.3h2.1c.1 0 .2 0 .2.1 1.4.4 2.4 1.9 2.1 3l-.2.6 1.7.4.8-1.9c.6-1.2 1.3-1.9 2-2.2h2.5c.1 0 .3.1.4.1 1.8.8 2 2.7 1.5 4l-.7 1.8 1.7.5 1.5-3.6c1-2.6 3.8-3 5.3-2.4 1.3.5 2.7 2.9 1.8 5l-1.6 3.6 1.7.6 3.6-7.8c.9-1.9 3.1-2.1 4.5-1.4 1.3.6 2.4 2.7 1.4 4.6l-3.8 7.4 1.8.9 4.8-9.5c1.3-2.5 4-2.6 5.5-1.6s2.3 3.3.8 5.7l-5.2 8.9 1.5.9 2.7-4.3c1.1-1.7 3.8-2.1 5.2-.9s1.9 3.2.7 5.1l-2.6 3.9 1.4 1.2.6-.9c.7-1.1 2.8-1.3 4.2-.2s1.4 3.2.8 4l-.6.8 6.4 5.9-.2-1.1-15.8-31.1h47.8v-1.1z"/>
    <path fill="#A05A2C" stroke-width=".3" stroke-linejoin="round" d="M384.3 897.5c-1.7.1-9.8.3-14 .8-4.3.5-8.5 1.2-12.7 2.2-5 1.1-9.9 2.4-14.8 4-4.5 1.4-9 3-13.3 5-4.4 2.1-8.5 4.5-12.6 7.1-3.9 2.5-7.8 5-11.4 8-4.4 3.7-12 12-12 12l1.5 1.3s7.6-8.3 11.8-11.8c3.5-2.9 7.4-5.4 11.2-7.9 4-2.5 8.1-5 12.3-7 4.2-2 8.6-3.5 13-4.9 4.8-1.6 9.7-2.9 14.7-3.9 4.1-.9 8.3-1.7 12.5-2.2 4-.5 12-.8 13.8-.8v.1s9.3.3 13.8.8c4.2.5 8.4 1.2 12.5 2.2 4.9 1.1 9.8 2.4 14.7 3.9 4.4 1.4 8.8 3 13 4.9 4.3 2 8.3 4.4 12.3 7 3.9 2.5 7.8 5 11.2 7.9 4.2 3.5 11.8 11.8 11.8 11.8l1.5-1.3s-7.6-8.3-12-12c-3.6-3-7.5-5.6-11.4-8-4.1-2.6-8.2-5-12.6-7.1-4.3-2-8.8-3.6-13.3-5-4.9-1.6-9.8-2.9-14.8-4-4.2-.9-8.4-1.7-12.7-2.2-4.2-.5-11.1-.7-12.8-.8v-.1h-1.2z"/>
    <path fill="#A05A2C" stroke-width=".3" d="M443.5 873.5l-1.3 2.2 67.8 137.9.3.9 50.6-.1-1.8-1.8-67.4-138.2-1.3-.8h-46.9zm2.4 3h43.4l66 135.2-43.1-.3-66.3-134.9z"/>
    <path fill="#A05A2C" stroke-width=".3" d="M384.3 874.5H275V873h218.4v1.5H384.3z"/>
    <path fill="#999" stroke-width=".3" d="M384.7 78.7h3v8.6h-3z"/>
    <path fill="#999" stroke-width=".3" d="M384.7 89.6h3v8.6h-3z"/>
    <path fill="#999" stroke-width=".3" d="M384.7 100.6h3v8.6h-3z"/>
    <path fill="#999" stroke-width=".3" d="M384.7 111.6h3v8.6h-3z"/>
  </g>
</svg>
