<svg viewBox="0 0 970 970" fill="none"
    xmlns="http://www.w3.org/2000/svg" class="w-10 h-10 fill-primary">
    <g clip-path="url(#clip0_301_346)">
        <path fill-rule="evenodd" clip-rule="evenodd" d="M245.598 113.357C245.637 117.366 246.671 121.375 248.761 124.995C250.991 128.857 254.204 131.898 257.955 133.95C269.953 126.187 282.373 119.022 295.173 112.495C295.278 108.21 294.251 103.894 292.016 100.022C289.931 96.4108 286.986 93.517 283.545 91.4794C270.508 98.158 257.846 105.464 245.598 113.357ZM203.876 143.818C204.741 145.656 205.69 147.473 206.724 149.265C209.812 154.614 213.473 159.41 217.583 163.628C142.344 226.168 89.3489 314.548 72.2155 415.15C64.4291 413.185 56.314 412.492 48.2123 413.146C66.0718 305.207 122.952 210.439 203.876 143.818ZM330.827 70.6587C331.961 72.2963 333.037 73.9945 334.052 75.7523C337.162 81.1389 339.497 86.7482 341.096 92.4577C386.043 75.9889 434.597 67.0005 485.25 67.0005C536.275 67.0005 585.169 76.121 630.391 92.8206C632.592 85.0953 636.059 77.7225 640.686 71.0366C592.321 52.9119 539.943 43.0005 485.25 43.0005C430.939 43.0005 378.91 52.7742 330.827 70.6587ZM687.649 91.835C700.7 98.5501 713.374 105.894 725.632 113.828C724.907 121.479 720.578 128.831 713.084 133.158C712.768 133.34 712.451 133.515 712.132 133.682C700.522 126.19 688.518 119.257 676.158 112.92C676.102 104.82 680.103 96.7266 687.649 91.835ZM752.695 163.443C758.48 157.666 763.187 151.041 766.714 143.892C847.516 210.447 904.332 305.074 922.239 412.851C914.282 412.303 906.186 413.04 898.283 415.136C881.13 314.441 828.048 225.991 752.695 163.443ZM903.74 506.864C904.079 499.952 904.25 492.996 904.25 486.001C904.25 478.987 904.078 472.013 903.737 465.084C903.978 464.934 904.221 464.788 904.468 464.646C912.037 460.276 920.664 460.245 927.691 463.54C928.062 470.98 928.25 478.468 928.25 486.001C928.25 493.116 928.083 500.192 927.751 507.225C919.768 511.392 910.759 510.889 903.74 506.864ZM898.345 556.5C881.388 656.581 828.944 744.588 754.411 807.127C758.461 811.307 762.07 816.053 765.121 821.337C766.195 823.197 767.176 825.083 768.067 826.991C848.342 760.336 904.701 665.874 922.367 558.38C914.264 559.077 906.143 558.425 898.345 556.5ZM726.247 857.774C714.206 865.596 701.76 872.849 688.95 879.494C685.23 877.443 682.045 874.417 679.83 870.58C677.718 866.923 676.685 862.87 676.666 858.821C689.626 852.153 702.193 844.83 714.323 836.895C717.889 838.94 720.941 841.895 723.085 845.607C725.267 849.387 726.298 853.59 726.247 857.774ZM630.984 878.961C632.573 884.389 634.832 889.721 637.793 894.85C638.955 896.863 640.198 898.798 641.516 900.653C592.921 918.975 540.256 929.001 485.25 929.001C430.373 929.001 377.825 919.022 329.324 900.781C333.982 894.112 337.48 886.751 339.714 879.034C385.047 895.827 434.077 905.001 485.25 905.001C536.497 905.001 585.596 895.8 630.984 878.961ZM257.853 837.985C269.526 845.542 281.599 852.534 294.033 858.923C293.994 867.014 289.912 875.062 282.297 879.88C269.324 873.182 256.725 865.862 244.538 857.959C245.197 850.226 249.538 842.77 257.107 838.4C257.354 838.257 257.603 838.119 257.853 837.985ZM217.394 808.216C142.134 745.584 89.1631 657.083 72.1326 556.362C64.2369 558.482 56.146 559.245 48.1905 558.723C65.9913 666.51 122.702 761.172 203.411 827.8C206.925 820.641 211.62 814.005 217.394 808.216ZM42.7946 508.154C49.7665 511.311 58.2589 511.221 65.7223 506.912C66.066 506.714 66.403 506.509 66.7333 506.298C66.4125 499.573 66.2503 492.806 66.2503 486.001C66.2503 478.919 66.426 471.878 66.7733 464.882C59.8073 460.744 50.8006 460.119 42.7793 464.159C42.428 471.396 42.2503 478.677 42.2503 486.001C42.2503 493.429 42.4331 500.815 42.7946 508.154Z" fill="white"></path>
        <path d="M313.034 87.8872C326.438 111.103 318.211 140.947 294.658 154.545C271.106 168.143 241.147 160.346 227.743 137.13C214.339 113.914 222.566 84.0703 246.119 70.4722C269.671 56.8742 299.63 64.6711 313.034 87.8872Z" fill="white"></path>
        <path d="M311.887 834.796C325.291 858.012 317.064 887.856 293.511 901.454C269.959 915.052 240 907.256 226.596 884.039C213.192 860.823 221.419 830.98 244.972 817.381C268.524 803.783 298.484 811.58 311.887 834.796Z" fill="white"></path>
        <path d="M959.249 461.042C972.653 484.259 964.426 514.102 940.873 527.7C917.321 541.299 887.362 533.502 873.958 510.285C860.554 487.069 868.781 457.226 892.334 443.628C915.886 430.029 945.845 437.826 959.249 461.042Z" fill="white"></path>
        <path d="M96.2331 461.272C109.637 484.488 101.41 514.332 77.8572 527.93C54.3046 541.528 24.3455 533.731 10.9417 510.515C-2.46212 487.299 5.76507 457.455 29.3176 443.857C52.8702 430.259 82.8293 438.056 96.2331 461.272Z" fill="white"></path>
        <path d="M744.103 833.472C757.507 856.688 749.28 886.532 725.727 900.13C702.175 913.728 672.215 905.931 658.812 882.715C645.408 859.499 653.635 829.655 677.188 816.057C700.74 802.459 730.699 810.256 744.103 833.472Z" fill="white"></path>
        <path d="M743.595 87.5181C756.999 110.734 748.771 140.578 725.219 154.176C701.666 167.774 671.707 159.977 658.303 136.761C644.9 113.545 653.127 83.7012 676.679 70.1031C700.232 56.505 730.191 64.302 743.595 87.5181Z" fill="white"></path>
        <path d="M485.395 203.193L660.527 203L366.703 496.674L290.127 572.822L203 485.588L485.395 203.193Z" fill="#E5E5E5"></path>
        <path d="M483.765 465.409C486.038 462.407 490.22 463.887 493.394 463.501L660.377 463.544L508.19 615.581L420.613 528.54L483.765 465.409Z" fill="#F64135"></path>
        <path d="M333.315 615.731L420.613 528.54L508.19 615.581L508.554 615.967L420.634 703.072L333.315 615.731V615.731Z" fill="#DE2418"></path>
        <path d="M420.635 703.072L508.555 615.967L660.442 768.004C603.23 768.133 546.039 767.961 488.848 768.09C485.589 768.819 483.573 765.838 481.493 763.994L420.635 703.072V703.072Z" fill="#C90000"></path>
    </g>
    <defs>
        <clipPath id="clip0_301_346">
            <rect width="970" height="970" fill="white"></rect>
        </clipPath>
    </defs>
</svg>