<?xml version="1.0" encoding="iso-8859-1"?>
<!-- Uploaded to: SVG Repo, www.svgrepo.com, Generator: SVG Repo Mixer Tools -->
<svg version="1.1" id="Layer_1" xmlns="http://www.w3.org/2000/svg" xmlns:xlink="http://www.w3.org/1999/xlink" 
	 viewBox="0 0 512 512" xml:space="preserve">
<rect x="240" y="58.667" style="fill:#EBE4DD;" width="32" height="64"/>
<g>
	<path style="fill:#88888F;" d="M291.372,112h-70.743C203.376,123.465,192,143.068,192,165.333V176h128v-10.667
		C320,143.068,308.623,123.465,291.372,112z"/>
	<path style="fill:#88888F;" d="M448,165.333H64c0,35.346-28.654,64-64,64V240h32v10.667h448V240h32v-10.667
		C476.654,229.333,448,200.679,448,165.333z"/>
</g>
<path style="fill:#797781;" d="M448,165.333H256v85.333h224V240h32v-10.667C476.654,229.333,448,200.679,448,165.333z"/>
<rect x="192" y="165.333" style="fill:#D8CCBC;" width="128" height="85.333"/>
<rect x="256" y="165.333" style="fill:#BFA993;" width="64" height="85.333"/>
<rect x="32" y="240" style="fill:#EBE4DD;" width="448" height="213.333"/>
<rect x="256" y="240" style="fill:#D8CCBC;" width="224" height="213.333"/>
<polygon style="fill:#D1E5F5;" points="389.333,453.333 122.667,453.333 256,229.333 "/>
<g>
	<rect x="85.333" y="293.333" style="fill:#454449;" width="32" height="32"/>
	<rect x="149.333" y="293.333" style="fill:#454449;" width="32" height="32"/>
	<rect x="85.333" y="357.333" style="fill:#454449;" width="32" height="32"/>
	<rect x="394.667" y="293.333" style="fill:#454449;" width="32" height="32"/>
	<rect x="330.667" y="293.333" style="fill:#454449;" width="32" height="32"/>
	<rect x="394.667" y="357.333" style="fill:#454449;" width="32" height="32"/>
</g>
<g>
	<polygon style="fill:#B4D8F1;" points="256,229.333 256,453.333 389.333,453.333 	"/>
	<path style="fill:#B4D8F1;" d="M256,229.333l-133.333,224h266.667L256,229.333z M256,260.615l21.38,35.918L256,332.452
		l-21.38-35.919L256,260.615z M193.571,437.333h-42.761l22.523-37.839l21.38,35.919L193.571,437.333z M191.953,368.213L216,327.814
		l21.38,35.919l-24.047,40.399L191.953,368.213z M278.905,437.333h-45.808l-1.142-1.92L256,395.014l24.047,40.399L278.905,437.333z
		 M274.62,363.733L296,327.814l24.046,40.399l-21.379,35.919L274.62,363.733z M317.286,435.413l21.38-35.919l22.523,37.839h-42.761
		L317.286,435.413z"/>
</g>
<path style="fill:#98C8ED;" d="M256,229.333v31.282l21.38,35.918L256,332.452v62.562l24.047,40.399l-1.142,1.92H256v16h133.333
	L256,229.333z M274.62,363.733L296,327.814l24.046,40.399l-21.379,35.919L274.62,363.733z M317.286,435.413l21.38-35.919
	l22.523,37.839h-42.761L317.286,435.413z"/>
<path style="fill:#797781;" d="M291.372,112H256v53.333h64C320,143.068,308.623,123.465,291.372,112z"/>
</svg>